HIERARCHY
ROOT Hips
{
	OFFSET	0.00	0.00	0.00
	CHANNELS 6 Xposition Yposition Zposition Zrotation Xrotation Yrotation
	JOINT Spine
	{
		OFFSET	 0.00	0.01	 0.00
		CHANNELS 3 Zrotation Xrotation Yrotation
		JOINT Spine1
		{
			OFFSET	 0.00	 2.45913012437421	 0.00
			CHANNELS 3 Zrotation Xrotation Yrotation
            JOINT Neck
            {
                OFFSET	 0.00	 2.48462964506057	 0.00
                CHANNELS 3 Zrotation Xrotation Yrotation
                JOINT Head
                {
                    OFFSET	 0.00	 0.927524780924562	 0.00
                    CHANNELS 3 Zrotation Xrotation Yrotation
                    End Site 
                    {
                        OFFSET	 0.00	 1.14999962169752	 0.00
                    }
                }
            }
			JOINT LeftShoulder
			{
				OFFSET	 0.00	 2.48462964506057	 0.00
				CHANNELS 3 Zrotation Xrotation Yrotation
				JOINT LeftUpArm
				{
					OFFSET	 0.00	 1.24881979654096	 0.00
					CHANNELS 3 Zrotation Xrotation Yrotation
					JOINT LeftForeArm
					{
						OFFSET	 0.00	2.59758046908119	 0.00
						CHANNELS 3 Zrotation Xrotation Yrotation
						JOINT LeftHand
						{
							OFFSET	 0.00	2.45542024364365	 0.00
							CHANNELS 3 Zrotation Xrotation Yrotation
							JOINT LeftHandThumb 
							{
								OFFSET	 0.00	0.00	 0.00
								CHANNELS 3 Zrotation Xrotation Yrotation
								End Site
								{
									OFFSET	 0.00	0.00	1.00000003353624
								}
							}
							JOINT L_Wrist_End 
							{
								OFFSET	 0.00	0.99999967115358	 0.00
								CHANNELS 3 Zrotation Xrotation Yrotation
								End Site 
								{
									OFFSET	 0.00	 0.00	 0.00
								}
							}
						}
					}
				}
			}
			JOINT RightShoulder
			{
				OFFSET	 0.00	 2.48462964506057	 0.00
				CHANNELS 3 Zrotation Xrotation Yrotation
				JOINT RightUpArm
				{
					OFFSET	 0.00	 1.24881979654096	 0.00
					CHANNELS 3 Zrotation Xrotation Yrotation
					JOINT RightForeArm
					{
						OFFSET	 0.00	2.59758046908119	 0.00
						CHANNELS 3 Zrotation Xrotation Yrotation
						JOINT RightHand
						{
							OFFSET	 0.00	2.45542024364365	 0.00
							CHANNELS 3 Zrotation Xrotation Yrotation
							JOINT RightHandThumb 
							{
								OFFSET	 0.00	0.00	 0.00
								CHANNELS 3 Zrotation Xrotation Yrotation
								End Site
								{
									OFFSET	 0.00	0.00	1.00000003353624
								}
							}
							JOINT R_Wrist_End 
							{
								OFFSET	 0.00	0.99999967115358	 0.00
								CHANNELS 3 Zrotation Xrotation Yrotation
								End Site 
								{
									OFFSET	 0.00	 0.00	 0.00
								}
							}
						}
					}
				}
			}
		}
	}
	JOINT LeftUpLeg
	{
		OFFSET	 1.2719394002717	 0.00	 0.00
		CHANNELS 3 Zrotation Xrotation Yrotation
		JOINT LeftLowLeg
		{
			OFFSET	 0.00	-4.3429100912261	 0.00
			CHANNELS 3 Zrotation Xrotation Yrotation
			JOINT LeftFoot
			{
				OFFSET	 0.00	-4.48767017425826	 0.00
				CHANNELS 3 Zrotation Xrotation Yrotation
				JOINT LeftToeBase
                {
                    OFFSET	 0.00	0.00	 1.51507020887566
                    CHANNELS 3 Zrotation Xrotation Yrotation
                    End Site 
                    {
                        OFFSET	 0.00	0.00	 0.75000010571191
                    }
                }
			}
		}
	}
	JOINT RightUpLeg
	{
		OFFSET	 -1.2719393604653	 0.00	 0.00
		CHANNELS 3 Zrotation Xrotation Yrotation
		JOINT RightLowLeg
		{
			OFFSET	 0.00	-4.3429100912261	 0.00
			CHANNELS 3 Zrotation Xrotation Yrotation
			JOINT RightFoot
			{
				OFFSET	 0.00	-4.48767017425826	 0.00
				CHANNELS 3 Zrotation Xrotation Yrotation
				JOINT RightToeBase
                {
                    OFFSET	 0.00	0.00	 1.51507020887566
                    CHANNELS 3 Zrotation Xrotation Yrotation
                    End Site 
                    {
                        OFFSET	 0.00	0.00	 0.749999965609858
                    }
                }   
			}
		}
	}
}
MOTION 
Frames:	13 
Frame Time: 0.02 
  2.0708799743652344 11.190999755859375 1.0369599914550782 -5.39965 30.0693 2.78612 9.88688 35.286 -10.0231 -12.626 27.7116 -0.498974 5.19736 43.9833 -39.5009 56.601 -35.5226 72.64 -94.34151 0.165089 4.162 -7.37655 20.1093 -10.9029 0.0 62.4594 0.0 16.4081 -6.59844 17.6425 0.0 0.0 0.0 0.0 0.0 0.0 103.8893 -4.73737 -5.91502 47.6078 -7.44398 -17.6796 0.0 73.3482 0.0 -8.23676 -38.4863 40.6695 0.0 0.0 0.0 0.0 0.0 0.0 -32.9902 -82.5872 -37.4567 0.0 121.231 0.0 -9.50798 26.771599 -9.02284 0.0 -43.2138 0.0 -11.5431 -66.3463 336.509 0.0 79.8238 0.0 58.2248 20.96963 4.70349 0.0 -106.7628 0.0 
  2.0719500732421876 11.189000244140624 1.0376799774169922 -5.42782 30.096 3.04776 9.94267 35.2058 -10.1444 -12.4131 27.5396 -0.607659 5.42703 44.0407 -39.7285 56.7389 -35.4851 72.9038 -94.78586 -0.30977 4.05726 -8.17104 19.254 -10.7026 0.0 61.9609 0.0 16.4402 -6.55022 18.0345 0.0 0.0 0.0 0.0 0.0 0.0 104.3446 -4.94682 -5.62827 47.1379 -7.28917 -17.576 0.0 73.4852 0.0 -13.6655 -34.7311 32.7153 0.0 0.0 0.0 0.0 0.0 0.0 -33.3816 -82.3383 -37.5745 0.0 120.164 0.0 -10.2337 26.6955 -9.52958 0.0 -42.7873 0.0 -11.3792 -66.3634 337.45 0.0 79.7461 0.0 58.8498 21.4037 4.85901 0.0 -107.1301 0.0 
  2.074250030517578 11.1852001953125 1.0376699829101563 -5.39121 30.1627 3.17417 9.90068 35.0682 -10.1452 -12.2628 27.4382 -0.652374 5.72472 44.0913 -39.9984 56.8686 -35.3912 73.2357 -95.12369 -0.781227 3.90933 -9.00007 18.4023 -10.2188 0.0 61.5765 0.0 16.7134 -6.91206 18.4687 0.0 0.0 0.0 0.0 0.0 0.0 104.7693 -5.16016 -5.30807 46.6934 -7.06051 -17.399 0.0 73.5026 0.0 -18.2143 -30.7276 24.744 0.0 0.0 0.0 0.0 0.0 0.0 -33.4177 -82.1256 -37.2372 0.0 118.966 0.0 -10.6384 26.8302 -10.153 0.0 -42.6223 0.0 -11.1624 -66.4464 338.616 0.0 79.6775 0.0 59.1576 21.98237 4.93127 0.0 -107.7969 0.0 
  2.079739990234375 11.1806005859375 1.0399500274658202 -5.48175 30.2713 3.49684 10.1712 34.8394 -10.3255 -12.2551 27.3751 -0.598465 6.01426 44.1646 -40.1889 57.1525 -35.2353 73.4712 -95.43941 -1.19784 3.7718 -9.854 17.646 -9.78893 0.0 61.0669 0.0 16.6719 -7.00549 19.5244 0.0 0.0 0.0 0.0 0.0 0.0 105.269 -5.38014 -4.85469 46.1331 -6.68506 -17.4265 0.0 73.1582 0.0 -20.9739 -26.7315 18.8917 0.0 0.0 0.0 0.0 0.0 0.0 -34.7829 -81.8553 -38.2725 0.0 117.668 0.0 -10.7812 27.1181 -10.5365 0.0 -42.52 0.0 -11.3844 -66.4702 339.125 0.0 79.835 0.0 59.2708 22.43155 4.97073 0.0 -107.3989 0.0 
  2.0791900634765623 11.17550048828125 1.0400599670410156 -5.61402 30.3547 3.63257 10.1933 34.7086 -10.2076 -12.136 27.3024 -0.418383 6.38708 44.196 -40.5009 57.3867 -35.0554 73.6505 -95.80832 -1.51697 3.71479 -10.6205 16.9116 -9.22858 0.0 60.4556 0.0 17.0409 -6.9715 20.4737 0.0 0.0 0.0 0.0 0.0 0.0 105.7759 -5.56692 -4.53648 45.4693 -6.24265 -17.6299 0.0 72.6863 0.0 -23.4255 -21.7924 14.3747 0.0 0.0 0.0 0.0 0.0 0.0 -33.4551 -81.8014 -36.3968 0.0 116.322 0.0 -10.7323 27.2868 -10.3847 0.0 -42.2903 0.0 -10.8496 -66.4493 340.378 0.0 79.8246 0.0 59.1917 22.65003 5.00627 0.0 -107.3478 0.0 
  2.077489929199219 11.1697998046875 1.042060012817383 -6.00655 30.332 3.97848 10.4902 34.6273 -10.2712 -12.0282 27.2788 -0.180895 6.61568 44.2612 -40.6372 57.6871 -34.909 73.6819 -96.28026 -1.94342 3.50509 -11.3438 16.2909 -8.49325 0.0 59.7249 0.0 17.3229 -7.06589 20.9844 0.0 0.0 0.0 0.0 0.0 0.0 106.3095 -5.69552 -4.54401 44.6874 -5.48376 -17.8382 0.0 72.2365 0.0 -25.3556 -19.0496 9.95364 0.0 0.0 0.0 0.0 0.0 0.0 -32.0104 -81.6276 -34.5546 0.0 114.995 0.0 -10.8462 27.2123 -9.97133 0.0 -42.4264 0.0 -10.2203 -66.1645 341.395 0.0 79.7541 0.0 59.4401 22.66221 4.97705 0.0 -107.2966 0.0 
  2.07697998046875 11.1643994140625 1.0422299957275392 -6.30257 30.3391 4.2237 10.6794 34.5531 -10.2799 -11.8819 27.2519 0.0163806 6.79917 44.2974 -40.7444 57.8759 -34.7739 73.6907 -96.80614 -2.2907 3.36915 -11.9892 15.5557 -7.83913 0.0 58.9576 0.0 17.3223 -7.07563 21.4614 0.0 0.0 0.0 0.0 0.0 0.0 106.7479 -5.73781 -4.38152 43.9348 -4.83148 -18.1242 0.0 71.7548 0.0 -26.3754 -17.083 6.32599 0.0 0.0 0.0 0.0 0.0 0.0 -30.1405 -81.4514 -32.1549 0.0 113.609 0.0 -10.5504 26.9404 -9.50097 0.0 -42.6812 0.0 -9.68305 -65.9139 342.306 0.0 79.6929 0.0 59.5128 22.49271 4.78673 0.0 -107.2147 0.0 
  2.076080017089844 11.16030029296875 1.0426000213623048 -6.52255 30.5081 4.40509 10.7997 34.3401 -10.2747 -11.8571 27.2563 0.162686 7.22692 44.2296 -41.1858 57.858 -34.586 73.8777 -97.28383 -2.72349 3.18837 -12.6154 14.8087 -7.1076 0.0 58.2033 0.0 17.4655 -7.10471 21.9302 0.0 0.0 0.0 0.0 0.0 0.0 107.216995 -5.67706 -4.18315 43.1659 -4.07806 -18.4165 0.0 71.1192 0.0 -26.833 -15.3211 2.76101 0.0 0.0 0.0 0.0 0.0 0.0 -28.421 -81.3103 -29.7999 0.0 112.157 0.0 -10.613 26.3909 -8.97197 0.0 -42.0965 0.0 -9.28767 -65.7938 343.111 0.0 79.6693 0.0 59.4115 22.32885 4.61192 0.0 -107.2522 0.0 
  2.0754299926757813 11.155400390625 1.0430999755859376 -6.86567 30.7335 4.66261 11.0134 34.093 -10.3345 -11.8011 27.2321 0.320544 7.72155 44.1575 -41.7723 57.7949 -34.4665 74.1887 -97.83902 -3.21386 3.06929 -13.1933 14.1409 -6.36027 0.0 57.3976 0.0 17.5498 -7.13982 21.8392 0.0 0.0 0.0 0.0 0.0 0.0 107.6891 -5.57702 -3.93855 42.3511 -3.35336 -18.5719 0.0 70.484 0.0 -26.2029 -14.0056 0.22578 0.0 0.0 0.0 0.0 0.0 0.0 -26.9489 -81.1774 -27.8968 0.0 110.626 0.0 -10.6514 26.029701 -8.84943 0.0 -41.873 0.0 -8.90067 -65.6644 343.693 0.0 79.592 0.0 59.2932 22.12613 4.44557 0.0 -107.3005 0.0 
  2.0758700561523438 11.150899658203125 1.042760009765625 -7.17143 30.9147 4.89385 11.2333 33.9348 -10.358 -11.7215 27.1792 0.523086 8.21072 44.1019 -42.3462 57.744 -34.3487 74.5018 -98.37034 -3.57026 2.90071 -13.8451 13.4995 -5.47304 0.0 56.545 0.0 17.9368 -7.23506 21.9725 0.0 0.0 0.0 0.0 0.0 0.0 108.038605 -5.50038 -3.90064 41.7098 -2.56202 -18.4514 0.0 69.7521 0.0 -25.1765 -13.3899 -1.00742 0.0 0.0 0.0 0.0 0.0 0.0 -25.4716 -80.89 -26.0664 0.0 108.99 0.0 -10.6915 25.9347 -8.92504 0.0 -41.9367 0.0 -8.67059 -65.4713 343.917 0.0 79.3329 0.0 61.1302 21.233631 3.49174 0.0 -107.6048 0.0 
  2.0761599731445313 11.14699951171875 1.0408499908447266 -7.26549 31.1839 4.92789 11.2123 33.7504 -10.245 -11.6323 27.1306 0.655991 8.54674 43.9525 -42.7515 57.6156 -34.2222 74.6782 -98.8165 -3.94108 2.61974 -14.5866 12.848 -4.36254 0.0 55.6652 0.0 18.3449 -7.32328 21.7534 0.0 0.0 0.0 0.0 0.0 0.0 108.2578 -5.33752 -3.97169 41.2654 -1.7846 -18.1823 0.0 68.8283 0.0 -24.2803 -12.2449 -1.46956 0.0 0.0 0.0 0.0 0.0 0.0 -23.6614 -80.5511 -23.739 0.0 107.221 0.0 -10.8877 25.955 -8.76247 0.0 -41.9267 0.0 -8.67785 -65.557 343.853 0.0 79.1116 0.0 61.6256 20.62229 1.74273 0.0 -106.8363 0.0 
  2.0772000122070313 11.1422998046875 1.0378900146484376 -7.07742 31.7371 4.81318 10.9207 33.3271 -10.0062 -11.5154 27.1297 0.697063 8.83781 43.7067 -43.0848 57.4588 -34.0214 74.6904 -99.24509 -4.32286 2.52726 -15.2557 12.2918 -3.40833 0.0 54.8307 0.0 18.5255 -7.41548 21.1483 0.0 0.0 0.0 0.0 0.0 0.0 108.3861 -5.20246 -3.91655 40.9006 -1.01184 -18.0283 0.0 67.786 0.0 -23.3935 -11.5703 -2.24846 0.0 0.0 0.0 0.0 0.0 0.0 -22.6509 -80.2866 -21.9776 0.0 105.303 0.0 -11.8596 26.1679 -8.30116 0.0 -42.0203 0.0 -9.15937 -66.0462 343.58 0.0 78.9153 0.0 61.612 20.31198 0.293644 0.0 -107.4188 0.0 
  2.075050048828125 11.13719970703125 1.0363600158691406 -7.07926 32.0406 4.77619 10.766 33.1296 -9.8229 -11.3835 27.1823 0.804651 8.89866 43.3206 -43.1392 57.2731 -33.7792 74.454 -99.66529 -4.63244 2.28712 -16.0026 11.6703 -2.39419 0.0 53.9684 0.0 18.747 -7.09791 21.1672 0.0 0.0 0.0 0.0 0.0 0.0 108.5807 -5.12247 -3.97039 40.4234 -0.0932411 -17.8395 0.0 66.7942 0.0 -22.334 -10.9881 -3.09079 0.0 0.0 0.0 0.0 0.0 0.0 -20.9522 -79.8291 -19.8317 0.0 103.431 0.0 -12.2283 26.3157 -7.99005 0.0 -41.907402 0.0 -9.28998 -66.2722 343.515 0.0 78.8365 0.0 62.0342 20.3682 -0.0778205 0.0 -107.4685 0.0 
